<svg width="40" height="36" viewBox="0 0 40 36" fill="none" xmlns="http://www.w3.org/2000/svg">
<path d="M38.7663 23.7847C39.0931 23.7847 39.4065 23.6548 39.6376 23.4238C39.8687 23.1927 39.9985 22.8793 39.9985 22.5525V11.8988C39.9973 11.8264 39.9898 11.7542 39.976 11.6832C39.9726 11.6647 39.9689 11.6465 39.9646 11.6283C39.9498 11.5613 39.9292 11.4956 39.903 11.4321C39.8996 11.4232 39.8947 11.4149 39.891 11.4059C39.8656 11.3497 39.836 11.2955 39.8026 11.2436C39.7912 11.2254 39.7795 11.2082 39.7672 11.1906C39.7312 11.1396 39.6915 11.0914 39.6483 11.0465L39.6236 11.0218C39.579 10.979 39.5312 10.9395 39.4807 10.9038C39.4607 10.8897 39.4403 10.8764 39.4191 10.8632C39.4052 10.8542 39.3923 10.8441 39.3778 10.8358L20.7527 0.162623C20.565 0.0552282 20.3523 -0.000855286 20.136 9.85975e-06C19.9197 0.000875006 19.7075 0.0586582 19.5206 0.167552L0.611497 11.1931C0.424751 11.302 0.269939 11.4581 0.162606 11.6457C0.0552731 11.8334 -0.00080282 12.0459 8.68418e-06 12.2621C0.000820189 12.4783 0.0584906 12.6904 0.167229 12.8773C0.275968 13.0641 0.431948 13.219 0.619506 13.3265L8.48458 17.8328L5.26376 26.5681C5.16297 26.8412 5.16219 27.1413 5.26154 27.415C5.36089 27.6887 5.55397 27.9184 5.80652 28.0633L19.284 35.7851C19.4718 35.8925 19.6845 35.9486 19.9007 35.9477C20.117 35.9469 20.3293 35.8891 20.5162 35.7802L34.1976 27.8021C34.4475 27.6564 34.6382 27.4274 34.7363 27.1552C34.8343 26.883 34.8335 26.5849 34.7339 26.3133L31.5226 17.5537L37.5342 14.0483V22.5525C37.5342 22.8793 37.664 23.1927 37.8951 23.4238C38.1262 23.6548 38.4396 23.7847 38.7663 23.7847ZM19.8921 33.2928L7.93628 26.443L11.0123 18.098C11.0582 18.0401 11.0988 17.9783 11.1337 17.9132L19.5366 22.7777C19.6306 22.8323 19.7374 22.8611 19.8462 22.8611C19.9549 22.8611 20.0617 22.8323 20.1558 22.7777L28.9348 17.6563L32.0666 26.1935L19.8921 33.2928ZM29.39 15.9445C29.3374 15.9763 29.2871 16.0119 29.2397 16.0511L19.8446 21.532L3.751 12.2148L20.1459 2.65494L36.3045 11.9126L29.39 15.9445Z" fill="#E44550"/>
<path d="M39.6366 25.0692C39.5806 25.0123 39.5187 24.9617 39.4518 24.9182C39.385 24.8731 39.3138 24.8349 39.2392 24.8043C39.1645 24.7737 39.0872 24.7499 39.0082 24.7334C38.8488 24.6995 38.684 24.6995 38.5246 24.7334C38.4465 24.7495 38.3701 24.7732 38.2966 24.8043C38.2215 24.8336 38.1501 24.8718 38.0841 24.9182C38.0162 24.9616 37.9531 25.0122 37.8962 25.0692C37.6654 25.3006 37.5358 25.6141 37.5358 25.9409C37.5358 26.2677 37.6654 26.5812 37.8962 26.8127C37.9539 26.8697 38.0168 26.9213 38.0841 26.9667C38.1509 27.0109 38.2221 27.0481 38.2966 27.0776C38.3701 27.1086 38.4465 27.1323 38.5246 27.1484C38.6841 27.1813 38.8487 27.1813 39.0082 27.1484C39.0872 27.1319 39.1645 27.1082 39.2392 27.0776C39.3131 27.0468 39.3842 27.0097 39.4518 26.9667C39.518 26.9212 39.5799 26.8696 39.6366 26.8127C39.7517 26.6986 39.8431 26.5628 39.9055 26.4132C39.9679 26.2635 40 26.103 40 25.9409C40 25.7788 39.9679 25.6183 39.9055 25.4687C39.8431 25.3191 39.7517 25.1833 39.6366 25.0692Z" fill="#E44550"/>
</svg>
