<svg width="40" height="37" viewBox="0 0 40 37" fill="none" xmlns="http://www.w3.org/2000/svg">
<path d="M5.40492 21.3363C5.4768 18.8704 6.16462 16.4616 7.40568 14.3295C8.64675 12.1974 10.4016 10.4098 12.5104 9.12946C12.3117 8.0115 12.3605 6.86357 12.6533 5.76649C12.9461 4.66941 13.4758 3.64983 14.2051 2.77951C14.9343 1.9092 15.8455 1.2093 16.8745 0.729084C17.9034 0.248867 19.0251 0 20.1606 0C21.296 0 22.4177 0.248867 23.4467 0.729084C24.4756 1.2093 25.3868 1.9092 26.1161 2.77951C26.8454 3.64983 27.3751 4.66941 27.6678 5.76649C27.9606 6.86357 28.0094 8.0115 27.8107 9.12946C29.936 10.4188 31.7016 12.2235 32.944 14.3765C34.1863 16.5296 34.8653 18.9613 34.918 21.4466C35.9808 21.8384 36.9451 22.4579 37.7433 23.2617C38.5415 24.0655 39.1543 25.034 39.5387 26.0995C39.9232 27.165 40.0701 28.3017 39.969 29.43C39.868 30.5582 39.5214 31.6507 38.9537 32.6309C38.386 33.6112 37.6109 34.4554 36.6825 35.1045C35.7542 35.7537 34.6952 36.192 33.5797 36.3887C32.4641 36.5855 31.3191 36.536 30.2247 36.2436C29.1303 35.9513 28.1131 35.4232 27.2443 34.6963C25.0395 35.905 22.562 36.5291 20.0478 36.5091C17.5336 36.4891 15.0663 35.8258 12.881 34.5823C12.0124 35.342 10.9853 35.8987 9.87457 36.2118C8.7638 36.5249 7.59723 36.5865 6.45966 36.3922C5.32209 36.1979 4.2421 35.7526 3.29822 35.0886C2.35434 34.4246 1.57028 33.5586 1.00304 32.5535C0.435802 31.5485 0.0996399 30.4297 0.0189896 29.2785C-0.061657 28.1273 0.115234 26.9726 0.536808 25.8983C0.958382 24.824 1.61404 23.8571 2.45612 23.068C3.29821 22.2789 4.30555 21.6873 5.40492 21.3363ZM2.96562 28.7369C2.97095 29.68 3.25515 30.6005 3.78244 31.3824C4.30973 32.1644 5.05654 32.7729 5.92889 33.1313C6.80124 33.4898 7.76013 33.5822 8.68487 33.3969C9.60962 33.2117 10.4589 32.757 11.1258 32.0901C11.7927 31.4232 12.2475 30.574 12.4328 29.6492C12.6181 28.7245 12.5258 27.7656 12.1674 26.8932C11.809 26.0209 11.2005 25.274 10.4186 24.7467C9.63666 24.2193 8.71622 23.9351 7.77311 23.9297C7.63682 23.9297 7.5029 23.9392 7.36957 23.9501C6.16961 24.052 5.05149 24.6003 4.23611 25.4865C3.42073 26.3728 2.96738 27.5326 2.96562 28.7369ZM24.9682 7.77308C24.9697 6.58235 24.5274 5.4338 23.7276 4.55162C22.9279 3.66944 21.8281 3.11693 20.6429 3.00194C19.4577 2.88695 18.2723 3.21773 17.3178 3.92972C16.3634 4.64171 15.7086 5.6838 15.4811 6.8526C15.2536 8.0214 15.4699 9.23302 16.0876 10.251C16.7053 11.2689 17.6802 12.0202 18.822 12.3581C19.9638 12.6959 21.1905 12.5962 22.2628 12.0784C23.335 11.5605 24.1758 10.6617 24.621 9.5573C24.849 8.99001 24.9668 8.38447 24.9682 7.77308ZM25.8491 11.4174C25.6227 11.2929 25.3936 11.1764 25.1617 11.0677C24.6173 11.8971 23.8752 12.5781 23.0022 13.0493C22.1291 13.5206 21.1526 13.7673 20.1606 13.7673C19.1685 13.7673 18.192 13.5206 17.319 13.0493C16.446 12.5781 15.7038 11.8971 15.1595 11.0677C12.8944 12.1211 11.0256 13.8714 9.82635 16.0628C9.62128 16.4365 9.43634 16.821 9.2723 17.2144C9.96857 18.42 13.0141 22.792 19.7219 21.1485C21.5926 15.0009 26.2505 13.7041 28.5461 13.4487C27.7489 12.6456 26.8406 11.9611 25.8491 11.4159V11.4174ZM27.8472 30.6989C28.2037 31.478 28.7631 32.147 29.4667 32.6359C30.1704 33.1248 30.9925 33.4156 31.847 33.478C32.7016 33.5403 33.5572 33.3718 34.3243 32.9902C35.0915 32.6085 35.7419 32.0277 36.2077 31.3086C36.6735 30.5894 36.9375 29.7583 36.972 28.9022C37.0065 28.046 36.8104 27.1964 36.404 26.442C35.9977 25.6877 35.3961 25.0564 34.6621 24.6142C33.9282 24.1721 33.089 23.9352 32.2322 23.9285C32.0701 23.9285 31.9101 23.9371 31.7522 23.9528C30.9943 24.0277 30.2651 24.2819 29.6249 24.6943C28.9847 25.1068 28.4518 25.6656 28.0702 26.3247C27.6887 26.9839 27.4695 27.7243 27.4307 28.4849C27.3919 29.2455 27.5347 30.0044 27.8472 30.6989ZM23.445 33.0766C24.6744 32.7211 25.8379 32.1683 26.8899 31.4396C26.4372 30.5513 26.214 29.5638 26.2407 28.5671C26.2674 27.5705 26.5432 26.5964 27.0428 25.7336C27.5424 24.8708 28.25 24.1467 29.1011 23.6275C29.9522 23.1082 30.9197 22.8102 31.9155 22.7606C32.1638 19.8274 31.3106 16.9069 29.5224 14.5686C28.2762 14.5523 22.856 14.8809 20.8511 21.5085C25.3943 26.2318 24.2017 30.9721 23.2664 33.1249C23.3259 33.1086 23.3858 33.0949 23.445 33.0777V33.0766ZM14.4724 32.0807C16.7033 33.3165 19.2768 33.79 21.8015 33.4291C22.4534 32.3287 24.8941 27.3998 19.9797 22.3099L19.9726 22.307C18.9655 22.5598 17.9319 22.6915 16.8936 22.6992C15.3147 22.7097 13.756 22.3435 12.3469 21.631C10.9378 20.9186 9.71897 19.8803 8.79144 18.6025C8.41156 19.9603 8.28106 21.3758 8.40627 22.7801C9.35524 22.8791 10.2667 23.2037 11.0646 23.727C11.8624 24.2502 12.5234 24.9569 12.9922 25.7878C13.4611 26.6188 13.7242 27.5499 13.7596 28.5034C13.795 29.4568 13.6016 30.4049 13.1957 31.2683C13.6036 31.5662 14.0301 31.838 14.4724 32.0819V32.0807Z" fill="#E44550"/>
</svg>
