<svg width="40" height="39" viewBox="0 0 40 39" fill="none" xmlns="http://www.w3.org/2000/svg">
<path d="M34.6705 16.5048C35.0538 16.4792 35.4197 16.3355 35.7179 16.0935C36.0161 15.8514 36.232 15.5229 36.3359 15.1532L39.9306 2.36135C40.02 2.04359 40.0231 1.70777 39.9396 1.38842C39.8561 1.06907 39.6891 0.777707 39.4557 0.544304C39.2223 0.310902 38.9309 0.143877 38.6116 0.0604039C38.2922 -0.0230688 37.9564 -0.0199766 37.6386 0.0693625L24.8468 3.66407C24.477 3.76766 24.1484 3.98329 23.9061 4.2813C23.6638 4.57931 23.5199 4.94506 23.494 5.32825C23.3131 7.30059 22.8455 9.23601 22.1061 11.0734C22.0887 11.1143 22.0729 11.1558 22.0584 11.1973L19.8392 13.4168L17.4985 11.0759C17.3499 9.61241 16.7434 6.52287 14.2851 4.03637C11.9621 1.6877 8.65702 0.496788 4.45927 0.496478C3.5271 0.499163 2.59578 0.553138 1.66954 0.658157C1.27938 0.699239 0.912104 0.862256 0.619907 1.12404C0.327709 1.38582 0.125463 1.73305 0.0419153 2.11636C-0.0405479 2.49592 -0.000687239 2.89184 0.15578 3.24734C0.312248 3.60284 0.577283 3.89966 0.912872 4.09522C1.07238 4.19681 3.00509 5.47475 2.81182 7.60227C2.63961 9.49689 2.28125 13.4391 4.56643 15.9414C5.8292 17.3243 7.64297 18.0256 9.95571 18.0256C10.2397 18.0256 10.5337 18.0147 10.836 17.9946L13.0499 20.2061L5.0078 28.2482L2.24656 31.0097C2.07397 31.1823 1.93705 31.3872 1.84364 31.6126C1.75023 31.8381 1.70215 32.0798 1.70215 32.3239C1.70215 32.568 1.75023 32.8096 1.84364 33.0351C1.93705 33.2606 2.07397 33.4655 2.24656 33.6381L6.40777 37.7993C6.58034 37.9719 6.78522 38.1088 7.01071 38.2022C7.2362 38.2956 7.47788 38.3437 7.72195 38.3437C7.96602 38.3437 8.2077 38.2956 8.43319 38.2022C8.65868 38.1088 8.86356 37.9719 9.03613 37.7993L11.7977 35.0374L19.8392 26.9953L27.8813 35.0374L30.6428 37.7993C30.8154 37.9719 31.0203 38.1088 31.2457 38.2022C31.4712 38.2956 31.7129 38.3437 31.957 38.3437C32.2011 38.3437 32.4427 38.2956 32.6682 38.2022C32.8937 38.1088 33.0986 37.9719 33.2712 37.7993L37.4317 33.6381C37.6043 33.4655 37.7413 33.2606 37.8347 33.0351C37.9281 32.8096 37.9762 32.568 37.9762 32.3239C37.9762 32.0798 37.9281 31.8381 37.8347 31.6126C37.7413 31.3872 37.6043 31.1823 37.4317 31.0097L26.6284 20.2061L28.9539 17.8806C30.7828 17.1478 32.7084 16.6843 34.6705 16.5048ZM29.1954 32.8473L20.7151 24.3673L24.0004 21.082L32.4804 29.5623L29.1954 32.8473ZM33.3566 30.4383L35.242 32.3239L31.957 35.6089L30.0714 33.7232L33.3566 30.4383ZM23.5509 19.7796L23.1241 20.2061L10.4829 32.8473L7.19789 29.5623L16.2172 20.543L16.5542 20.2061L19.8392 16.9211L20.0179 16.7424L23.948 12.8122L27.2333 16.0972L23.5509 19.7796ZM9.60696 33.7232L7.72133 35.6089L4.43635 32.3239L6.32167 30.4383L9.60696 33.7232ZM6.55551 14.4343C6.22344 14.1085 5.95488 13.7238 5.76353 13.2997C6.49669 13.0944 7.14 12.6495 7.59093 12.036C8.63596 10.7727 8.57928 9.62883 8.53406 8.71203C8.49193 7.86554 8.45848 7.19684 9.18449 6.40517C10.1366 5.36479 12.1145 5.45462 12.1334 5.45554C12.1523 5.45647 12.1678 5.45369 12.1851 5.45338L12.191 5.45833C14.6466 7.67289 15.008 10.768 15.061 11.6461L11.2383 15.4669C9.11077 15.7196 7.53549 15.3727 6.55551 14.4343ZM5.37142 12.1113C5.03072 10.5676 5.18558 8.848 5.2785 7.82745C5.3491 6.93756 5.22149 6.0431 4.90486 5.20846C4.58822 4.37382 4.09045 3.61978 3.44738 3.00064C6.35543 2.85847 8.75799 3.31377 10.6312 4.35446C9.73588 4.50248 8.90954 4.92767 8.26862 5.57014C7.19448 6.74371 7.24837 7.82311 7.29576 8.77522C7.33819 9.62294 7.37474 10.3548 6.63573 11.2475C5.97198 12.0472 5.46434 12.1067 5.37142 12.1104V12.1113ZM5.38566 12.1163L5.3804 12.1472C5.37792 12.1361 5.37482 12.1252 5.37235 12.1144L5.38566 12.1163ZM15.6888 12.7698L18.9632 16.0449L15.6779 19.3302L12.4026 16.0548L15.6888 12.7698ZM24.5669 11.5928C25.2624 9.77187 25.7213 7.86913 25.9321 5.93129L36.0293 3.09417L31.1697 7.9532C30.7731 7.7633 30.3221 7.71978 29.8965 7.83033C29.4709 7.94087 29.0981 8.19836 28.8441 8.55726C28.59 8.91615 28.4711 9.35333 28.5083 9.79146C28.5455 10.2296 28.7365 10.6405 29.0474 10.9514C29.3583 11.2623 29.7692 11.4533 30.2073 11.4905C30.6454 11.5277 31.0826 11.4087 31.4415 11.1547C31.8004 10.9006 32.0579 10.5278 32.1684 10.1023C32.279 9.67667 32.2355 9.2257 32.0456 8.82911L36.9052 3.9704L34.0681 14.0676C32.1299 14.2782 30.2268 14.7372 28.4056 15.4331L24.5669 11.5928Z" fill="#E44550"/>
</svg>
