<svg id="Layer_1" data-name="Layer 1" xmlns="http://www.w3.org/2000/svg" xmlns:xlink="http://www.w3.org/1999/xlink" viewBox="0 0 375.29 158.588">
  <defs>
    <style>
      .cls-1 {
        fill: url(#linear-gradient);
      }

      .cls-2 {
        fill: url(#linear-gradient-2);
      }

      .cls-3 {
        fill: url(#linear-gradient-3);
      }

      .cls-4 {
        fill: url(#linear-gradient-4);
      }

      .cls-5 {
        fill: url(#linear-gradient-5);
      }

      .cls-6 {
        fill: url(#linear-gradient-6);
      }

      .cls-7 {
        fill: #30354b;
      }
    </style>
    <linearGradient id="linear-gradient" x1="-1.041" y1="74.024" x2="56.307" y2="16.676" gradientTransform="matrix(1, 0, 0, -1, 0, 165.733)" gradientUnits="userSpaceOnUse">
      <stop offset="0" stop-color="#f47d51"/>
      <stop offset="0.96" stop-color="#df72ac"/>
    </linearGradient>
    <linearGradient id="linear-gradient-2" x1="56.17" y1="54.938" x2="75.388" y2="35.72" gradientTransform="matrix(1, 0, 0, -1, 0, 165.733)" gradientUnits="userSpaceOnUse">
      <stop offset="0" stop-color="#f15d4c"/>
      <stop offset="1" stop-color="#c36ca1"/>
    </linearGradient>
    <linearGradient id="linear-gradient-3" x1="37.594" y1="102.188" x2="70.297" y2="69.485" gradientTransform="matrix(1, 0, 0, -1, 0, 165.733)" gradientUnits="userSpaceOnUse">
      <stop offset="0" stop-color="#b46947"/>
      <stop offset="0.896" stop-color="#ae5262"/>
    </linearGradient>
    <linearGradient id="linear-gradient-4" x1="70.003" y1="165.733" x2="70.003" y2="84.677" gradientTransform="matrix(1, 0, 0, -1, 0, 165.733)" gradientUnits="userSpaceOnUse">
      <stop offset="0" stop-color="#ffd663"/>
      <stop offset="1" stop-color="#f26c7d"/>
    </linearGradient>
    <linearGradient id="linear-gradient-5" x1="14.818" y1="133.775" x2="42.05" y2="106.543" gradientTransform="matrix(1, 0, 0, -1, 0, 165.733)" gradientUnits="userSpaceOnUse">
      <stop offset="0" stop-color="#fff171"/>
      <stop offset="1" stop-color="#fab382"/>
    </linearGradient>
    <linearGradient id="linear-gradient-6" x1="18.342" y1="103.018" x2="56.526" y2="64.834" gradientTransform="matrix(1, 0, 0, -1, 0, 165.733)" gradientUnits="userSpaceOnUse">
      <stop offset="0" stop-color="#d48a3d"/>
      <stop offset="0.795" stop-color="#db474e"/>
    </linearGradient>
  </defs>
  <g>
    <polygon class="cls-1" points="46.775 120.463 46.775 158.588 0 90.668 46.775 120.463"/>
    <polygon class="cls-2" points="93.231 90.668 46.775 158.588 46.775 120.463 93.231 90.668"/>
    <polygon class="cls-3" points="93.231 81.056 46.775 54.465 46.775 110.851 93.231 81.056"/>
    <polygon class="cls-4" points="93.231 81.056 46.775 0 46.775 54.465 93.231 81.056"/>
    <polygon class="cls-5" points="46.775 0 46.775 54.465 0 81.056 46.775 0"/>
    <polygon class="cls-6" points="46.775 54.465 46.775 110.851 0 81.056 46.775 54.465"/>
    <g>
      <path class="cls-7" d="M116.318,28.91a14.812,14.812,0,0,1,1.633-7.058,11.662,11.662,0,0,1,4.561-4.753,13.362,13.362,0,0,1,6.77-1.68,12.664,12.664,0,0,1,6.6,1.728A11.969,11.969,0,0,1,140.42,22a15.107,15.107,0,0,1,1.633,7.106v2.016H123.184a5.407,5.407,0,0,0,1.825,3.89,6.413,6.413,0,0,0,4.417,1.488,7.635,7.635,0,0,0,3.552-.841,13.649,13.649,0,0,0,3.553-2.9l4.274,4.369a16.113,16.113,0,0,1-5.09,3.817,14.471,14.471,0,0,1-6.289,1.368,13.727,13.727,0,0,1-6.866-1.68,11.6,11.6,0,0,1-4.609-4.729A14.563,14.563,0,0,1,116.318,28.91Zm18.821-2.785a5.017,5.017,0,0,0-1.849-3.5,6.592,6.592,0,0,0-8.041-.048,5.8,5.8,0,0,0-1.969,3.553Z"/>
      <path class="cls-7" d="M146.421,28.862a14.566,14.566,0,0,1,1.633-6.986,11.809,11.809,0,0,1,4.585-4.753,13.249,13.249,0,0,1,6.746-1.7,12.315,12.315,0,0,1,7.681,2.448,12.11,12.11,0,0,1,4.37,6.578l-6.626,1.824a6.247,6.247,0,0,0-1.825-3.337,5.141,5.141,0,0,0-3.6-1.224,5.57,5.57,0,0,0-4.49,1.9,7.881,7.881,0,0,0-1.608,5.257,7.879,7.879,0,0,0,1.608,5.257,5.567,5.567,0,0,0,4.49,1.9,5.141,5.141,0,0,0,3.6-1.224,6.247,6.247,0,0,0,1.825-3.337l6.626,1.824a12.106,12.106,0,0,1-4.37,6.578,12.315,12.315,0,0,1-7.681,2.448,13.249,13.249,0,0,1-6.746-1.7,11.8,11.8,0,0,1-4.585-4.753A14.56,14.56,0,0,1,146.421,28.862Z"/>
      <path class="cls-7" d="M175.564,28.862a14.566,14.566,0,0,1,1.633-6.986,11.809,11.809,0,0,1,4.585-4.753,14.3,14.3,0,0,1,13.539,0,11.809,11.809,0,0,1,4.585,4.753,14.577,14.577,0,0,1,1.633,6.986,14.572,14.572,0,0,1-1.633,6.986,11.8,11.8,0,0,1-4.585,4.753,14.3,14.3,0,0,1-13.539,0,11.8,11.8,0,0,1-4.585-4.753A14.56,14.56,0,0,1,175.564,28.862Zm19.109,0a7.876,7.876,0,0,0-1.609-5.257,5.624,5.624,0,0,0-4.536-1.9,5.567,5.567,0,0,0-4.489,1.9,7.876,7.876,0,0,0-1.609,5.257,7.874,7.874,0,0,0,1.609,5.257,6.261,6.261,0,0,0,9-.024A7.82,7.82,0,0,0,194.673,28.862Z"/>
      <path class="cls-7" d="M205.379,33.183l6.242-1.44a6.535,6.535,0,0,0,2.424,3.673,7.368,7.368,0,0,0,4.441,1.272,9.209,9.209,0,0,0,3.673-.576,1.8,1.8,0,0,0,1.273-1.633,2.015,2.015,0,0,0-1.3-1.848,21.05,21.05,0,0,0-4.754-1.32q-5.666-1.056-8.09-2.929a6.137,6.137,0,0,1-2.425-5.137,6.575,6.575,0,0,1,1.345-4.081A8.681,8.681,0,0,1,211.98,16.4a14.654,14.654,0,0,1,5.546-.984,13.806,13.806,0,0,1,7.586,2.112,10.39,10.39,0,0,1,4.465,5.618l-5.905,1.92a5.961,5.961,0,0,0-2.329-2.977,6.9,6.9,0,0,0-3.865-1.056,6.261,6.261,0,0,0-2.976.6,1.834,1.834,0,0,0-1.105,1.657q0,.96,1.224,1.56a18.952,18.952,0,0,0,4.441,1.176q5.859,1.105,8.378,3.049a6.436,6.436,0,0,1,2.521,5.4,6.439,6.439,0,0,1-1.416,4.13,8.946,8.946,0,0,1-4.033,2.736,17.445,17.445,0,0,1-6.026.96,14.675,14.675,0,0,1-8.618-2.4A11.111,11.111,0,0,1,205.379,33.183Z"/>
      <path class="cls-7" d="M243.4,40.577,233.273,16.139h7.2l6.336,16.276h.1L253.2,16.139h7.2L245.612,52.388h-7.153Z"/>
      <path class="cls-7" d="M261.743,33.183l6.242-1.44a6.54,6.54,0,0,0,2.424,3.673,7.371,7.371,0,0,0,4.442,1.272,9.206,9.206,0,0,0,3.672-.576,1.8,1.8,0,0,0,1.273-1.633,2.015,2.015,0,0,0-1.3-1.848,21.017,21.017,0,0,0-4.754-1.32q-5.664-1.056-8.09-2.929a6.137,6.137,0,0,1-2.425-5.137,6.581,6.581,0,0,1,1.345-4.081,8.684,8.684,0,0,1,3.769-2.761,14.65,14.65,0,0,1,5.546-.984,13.809,13.809,0,0,1,7.586,2.112,10.388,10.388,0,0,1,4.464,5.618l-5.9,1.92a5.956,5.956,0,0,0-2.329-2.977,6.889,6.889,0,0,0-3.864-1.056,6.268,6.268,0,0,0-2.977.6,1.833,1.833,0,0,0-1.1,1.657q0,.96,1.223,1.56a18.964,18.964,0,0,0,4.442,1.176q5.857,1.105,8.378,3.049a6.438,6.438,0,0,1,2.52,5.4,6.433,6.433,0,0,1-1.416,4.13,8.946,8.946,0,0,1-4.033,2.736,17.443,17.443,0,0,1-6.025.96,14.678,14.678,0,0,1-8.619-2.4A11.111,11.111,0,0,1,261.743,33.183Z"/>
      <path class="cls-7" d="M302.842,22.284V32.511a2.5,2.5,0,0,0,.6,1.872,2.828,2.828,0,0,0,1.994.577h5.809v6.625h-6.433a9.68,9.68,0,0,1-6.531-1.993,7.111,7.111,0,0,1-2.3-5.689V22.284h-6.242V16.139h6.242V9.657h6.866v6.482h9.986v6.145Z"/>
      <path class="cls-7" d="M317.436,28.91a14.812,14.812,0,0,1,1.633-7.058A11.662,11.662,0,0,1,323.63,17.1a13.361,13.361,0,0,1,6.769-1.68,12.665,12.665,0,0,1,6.6,1.728A11.969,11.969,0,0,1,341.538,22a15.107,15.107,0,0,1,1.633,7.106v2.016H324.3a5.4,5.4,0,0,0,1.824,3.89,6.417,6.417,0,0,0,4.417,1.488,7.645,7.645,0,0,0,3.553-.841,13.646,13.646,0,0,0,3.552-2.9l4.274,4.369a16.113,16.113,0,0,1-5.09,3.817,14.471,14.471,0,0,1-6.289,1.368,13.727,13.727,0,0,1-6.866-1.68,11.593,11.593,0,0,1-4.609-4.729A14.563,14.563,0,0,1,317.436,28.91Zm18.821-2.785a5.019,5.019,0,0,0-1.848-3.5,6.594,6.594,0,0,0-8.042-.048,5.805,5.805,0,0,0-1.969,3.553Z"/>
      <path class="cls-7" d="M347.779,16.139h6.049v2.208h.1a5.645,5.645,0,0,1,2.088-1.992,5.75,5.75,0,0,1,2.808-.7,5.546,5.546,0,0,1,4.85,2.832h.1a6.05,6.05,0,0,1,5.281-2.832,5.721,5.721,0,0,1,4.513,1.968,7.5,7.5,0,0,1,1.729,5.137V41.585h-6.338V23.965a2.28,2.28,0,0,0-.576-1.681,2.21,2.21,0,0,0-1.633-.576,2.086,2.086,0,0,0-1.608.648,2.475,2.475,0,0,0-.6,1.753V41.585h-6V23.965a2.357,2.357,0,0,0-.552-1.657,2.014,2.014,0,0,0-1.56-.6,2.226,2.226,0,0,0-1.681.648,2.422,2.422,0,0,0-.624,1.753V41.585h-6.337Z"/>
      <path class="cls-7" d="M116.991,85.183l6.241-1.441a6.526,6.526,0,0,0,2.425,3.673,7.359,7.359,0,0,0,4.441,1.273,9.206,9.206,0,0,0,3.672-.576,1.8,1.8,0,0,0,1.273-1.632,2.016,2.016,0,0,0-1.3-1.849,20.984,20.984,0,0,0-4.753-1.32q-5.667-1.056-8.091-2.929a6.135,6.135,0,0,1-2.424-5.137,6.58,6.58,0,0,1,1.344-4.081,8.69,8.69,0,0,1,3.769-2.761,14.65,14.65,0,0,1,5.546-.984,13.809,13.809,0,0,1,7.586,2.112,10.388,10.388,0,0,1,4.464,5.618l-5.905,1.921a5.958,5.958,0,0,0-2.328-2.978,6.9,6.9,0,0,0-3.866-1.056,6.266,6.266,0,0,0-2.976.6,1.833,1.833,0,0,0-1.1,1.657q0,.96,1.224,1.56a18.988,18.988,0,0,0,4.441,1.176q5.857,1.106,8.378,3.049a6.911,6.911,0,0,1,1.1,9.531,8.943,8.943,0,0,1-4.032,2.736,17.453,17.453,0,0,1-6.026.96,14.674,14.674,0,0,1-8.619-2.4A11.1,11.1,0,0,1,116.991,85.183Z"/>
      <path class="cls-7" d="M145.941,84.943v-16.8h6.866v15.22q0,4.658,4.609,4.657a4.35,4.35,0,0,0,3.289-1.273,4.672,4.672,0,0,0,1.224-3.384V68.139H168.8V93.585h-6.578V91.328h-.095a7.416,7.416,0,0,1-2.905,2.161,9.473,9.473,0,0,1-3.865.816q-4.514,0-6.962-2.472A9.367,9.367,0,0,1,145.941,84.943Z"/>
      <path class="cls-7" d="M176.525,68.139H183.1v2.208h.095a9.534,9.534,0,0,1,7.155-2.928,11.061,11.061,0,0,1,6.025,1.68,11.31,11.31,0,0,1,4.152,4.729,15.848,15.848,0,0,1,1.49,7.034,15.658,15.658,0,0,1-1.49,6.914,11.548,11.548,0,0,1-4.177,4.8,11.031,11.031,0,0,1-6.1,1.728,10.665,10.665,0,0,1-3.889-.672,8.221,8.221,0,0,1-2.881-1.824h-.095v12.579h-6.866Zm18.628,12.723a7.841,7.841,0,0,0-1.633-5.209,5.568,5.568,0,0,0-4.512-1.945,5.488,5.488,0,0,0-3.961,1.609,5.246,5.246,0,0,0-1.656,3.913v3.312a5.03,5.03,0,0,0,.768,2.689,5.739,5.739,0,0,0,2.136,2.016,6.109,6.109,0,0,0,3.049.769,5.158,5.158,0,0,0,4.249-1.945A8.083,8.083,0,0,0,195.153,80.862Z"/>
      <path class="cls-7" d="M206.627,68.139h6.578v2.208h.1a9.532,9.532,0,0,1,7.154-2.928,11.061,11.061,0,0,1,6.025,1.68,11.306,11.306,0,0,1,4.153,4.729,15.848,15.848,0,0,1,1.489,7.034,15.658,15.658,0,0,1-1.489,6.914,11.548,11.548,0,0,1-4.177,4.8,11.035,11.035,0,0,1-6.1,1.728,10.655,10.655,0,0,1-3.888-.672,8.2,8.2,0,0,1-2.881-1.824h-.1v12.579h-6.866Zm18.629,12.723a7.841,7.841,0,0,0-1.633-5.209,5.572,5.572,0,0,0-4.513-1.945,5.49,5.49,0,0,0-3.961,1.609,5.25,5.25,0,0,0-1.656,3.913v3.312a5.038,5.038,0,0,0,.768,2.689,5.739,5.739,0,0,0,2.136,2.016,6.112,6.112,0,0,0,3.049.769,5.158,5.158,0,0,0,4.249-1.945A8.083,8.083,0,0,0,225.256,80.862Z"/>
      <path class="cls-7" d="M236.73,80.862a14.563,14.563,0,0,1,1.633-6.986,11.8,11.8,0,0,1,4.585-4.753,14.3,14.3,0,0,1,13.539,0,11.809,11.809,0,0,1,4.585,4.753,15.76,15.76,0,0,1,0,13.972,11.8,11.8,0,0,1-4.585,4.753,14.3,14.3,0,0,1-13.539,0,11.8,11.8,0,0,1-4.585-4.753A14.56,14.56,0,0,1,236.73,80.862Zm19.109,0a7.876,7.876,0,0,0-1.609-5.257,5.624,5.624,0,0,0-4.537-1.9,5.565,5.565,0,0,0-4.488,1.9,7.875,7.875,0,0,0-1.608,5.257,7.872,7.872,0,0,0,1.608,5.257,6.261,6.261,0,0,0,9-.024A7.82,7.82,0,0,0,255.839,80.862Z"/>
      <path class="cls-7" d="M267.986,68.139h6.577v2.352h.1a9.613,9.613,0,0,1,7.395-3.072,8.8,8.8,0,0,1,5.713,1.944,10.229,10.229,0,0,1,3.361,5.306l-6.434,2.112a4.4,4.4,0,0,0-4.561-3.121,4.988,4.988,0,0,0-3.937,1.513,6.03,6.03,0,0,0-1.344,4.152v14.26h-6.866Z"/>
      <path class="cls-7" d="M307.643,74.284V84.511a2.5,2.5,0,0,0,.6,1.872,2.822,2.822,0,0,0,1.993.576h5.81v6.626h-6.434a9.684,9.684,0,0,1-6.53-1.992,7.114,7.114,0,0,1-2.305-5.689V74.284h-6.241V68.139h6.241V61.657h6.867v6.482h9.986v6.145Z"/>
      <path class="cls-7" d="M117.279,120.139h6.577v2.209h.1a9.535,9.535,0,0,1,7.154-2.93,11.059,11.059,0,0,1,6.025,1.681,11.314,11.314,0,0,1,4.154,4.729,15.864,15.864,0,0,1,1.488,7.034,15.671,15.671,0,0,1-1.488,6.914,11.55,11.55,0,0,1-4.178,4.8,11.034,11.034,0,0,1-6.1,1.728,10.661,10.661,0,0,1-3.889-.672,8.221,8.221,0,0,1-2.881-1.824h-.095v12.579h-6.866Zm18.628,12.723a7.841,7.841,0,0,0-1.632-5.209,5.577,5.577,0,0,0-4.513-1.945,5.484,5.484,0,0,0-3.961,1.609,5.248,5.248,0,0,0-1.656,3.913v3.312a5.03,5.03,0,0,0,.768,2.689,5.739,5.739,0,0,0,2.136,2.016,6.109,6.109,0,0,0,3.049.769,5.159,5.159,0,0,0,4.249-1.945A8.083,8.083,0,0,0,135.907,132.862Z"/>
      <path class="cls-7" d="M147.574,120.139h6.577v2.352h.1a9.614,9.614,0,0,1,7.393-3.073,8.8,8.8,0,0,1,5.713,1.945,10.218,10.218,0,0,1,3.361,5.305l-6.433,2.113a4.4,4.4,0,0,0-4.561-3.121,4.988,4.988,0,0,0-3.937,1.513,6.026,6.026,0,0,0-1.345,4.152v14.26h-6.865Z"/>
      <path class="cls-7" d="M173.644,132.862a14.574,14.574,0,0,1,1.632-6.986,11.817,11.817,0,0,1,4.586-4.753,14.291,14.291,0,0,1,13.539,0,11.813,11.813,0,0,1,4.584,4.753,15.76,15.76,0,0,1,0,13.972A11.8,11.8,0,0,1,193.4,144.6a14.3,14.3,0,0,1-13.539,0,11.8,11.8,0,0,1-4.586-4.753A14.571,14.571,0,0,1,173.644,132.862Zm19.109,0a7.881,7.881,0,0,0-1.609-5.257,5.626,5.626,0,0,0-4.537-1.9,5.568,5.568,0,0,0-4.489,1.9,9.4,9.4,0,0,0,0,10.514,6.261,6.261,0,0,0,9-.024A7.82,7.82,0,0,0,192.753,132.862Z"/>
      <path class="cls-7" d="M205.619,151.25l5.234-3.984a9.545,9.545,0,0,0,2.9,2.9,7.187,7.187,0,0,0,3.625.841,5.989,5.989,0,0,0,4.273-1.489,5.387,5.387,0,0,0,1.584-4.129v-1.824h-.095a8.89,8.89,0,0,1-2.953,2.088,9.822,9.822,0,0,1-3.769.648,11.111,11.111,0,0,1-6.121-1.7,11.289,11.289,0,0,1-4.129-4.753,15.92,15.92,0,0,1-1.465-6.986,15.4,15.4,0,0,1,1.513-6.938,11.808,11.808,0,0,1,4.176-4.777,10.91,10.91,0,0,1,6.074-1.729,9.818,9.818,0,0,1,3.7.625,8.557,8.557,0,0,1,2.833,1.92h.1v-1.824h6.626v25.542a11.335,11.335,0,0,1-1.561,5.954,10.687,10.687,0,0,1-4.346,4.032,14.845,14.845,0,0,1-18.2-4.417Zm17.236-16.756v-3.312a5.3,5.3,0,0,0-1.536-3.986,5.429,5.429,0,0,0-3.937-1.488,5.183,5.183,0,0,0-4.249,1.921,9.416,9.416,0,0,0,.024,10.418,5.1,5.1,0,0,0,4.177,1.969,5.288,5.288,0,0,0,2.713-.744,5.721,5.721,0,0,0,2.04-2.017A5.244,5.244,0,0,0,222.855,134.494Z"/>
      <path class="cls-7" d="M236.923,120.139H243.5v2.352h.1a9.615,9.615,0,0,1,7.394-3.073,8.8,8.8,0,0,1,5.713,1.945,10.218,10.218,0,0,1,3.361,5.305l-6.433,2.113a4.4,4.4,0,0,0-4.562-3.121,4.986,4.986,0,0,0-3.936,1.513,6.026,6.026,0,0,0-1.345,4.152v14.26h-6.865Z"/>
      <path class="cls-7" d="M263.616,138.768a6.715,6.715,0,0,1,2.425-5.522q2.424-1.968,8.09-2.881a13.943,13.943,0,0,0,4.057-1.08,1.8,1.8,0,0,0,1.081-1.608,2.07,2.07,0,0,0-1.057-1.825,5.328,5.328,0,0,0-2.88-.672,5.448,5.448,0,0,0-3.577,1.248,5.651,5.651,0,0,0-1.944,3.313l-6.386-1.44a9.885,9.885,0,0,1,2.16-4.609,11.432,11.432,0,0,1,4.226-3.145,13.466,13.466,0,0,1,5.521-1.129,11,11,0,0,1,7.825,2.737,9.515,9.515,0,0,1,2.929,7.3v16.132H279.94v-2.833h-.095a7.339,7.339,0,0,1-3.1,2.617,10.435,10.435,0,0,1-4.489.936,10.05,10.05,0,0,1-4.465-.96,7.391,7.391,0,0,1-3.073-2.689A7.06,7.06,0,0,1,263.616,138.768Zm15.941-2.641v-2.881h-.1a2.971,2.971,0,0,1-1.441,1.153,17.317,17.317,0,0,1-3.168.864,12.287,12.287,0,0,0-3.7,1.224,2.031,2.031,0,0,0-1.008,1.8,1.878,1.878,0,0,0,.888,1.681,4.735,4.735,0,0,0,2.569.576,7.328,7.328,0,0,0,2.929-.6,5.55,5.55,0,0,0,2.208-1.632A3.473,3.473,0,0,0,279.557,136.127Z"/>
      <path class="cls-7" d="M292.375,120.139h6.049v2.209h.1a5.663,5.663,0,0,1,2.088-1.993,5.758,5.758,0,0,1,2.809-.7,5.547,5.547,0,0,1,4.85,2.833h.1a6.052,6.052,0,0,1,5.282-2.833,5.722,5.722,0,0,1,4.513,1.969,7.5,7.5,0,0,1,1.729,5.138v18.82h-6.338v-17.62a2.283,2.283,0,0,0-.576-1.681,2.214,2.214,0,0,0-1.633-.576,2.087,2.087,0,0,0-1.609.649,2.475,2.475,0,0,0-.6,1.752v17.476h-6v-17.62a2.358,2.358,0,0,0-.552-1.656,2.012,2.012,0,0,0-1.56-.6,2.221,2.221,0,0,0-1.681.649,2.418,2.418,0,0,0-.624,1.752v17.476h-6.337Z"/>
    </g>
  </g>
</svg>
