<svg width="52" height="51" viewBox="0 0 52 51" fill="none" xmlns="http://www.w3.org/2000/svg">
<g clip-path="url(#clip0_1518_282)">
<path fill-rule="evenodd" clip-rule="evenodd" d="M25.9976 0C11.6421 0 0 11.6881 0 26.1087C0 37.6414 7.44909 47.4272 17.7824 50.8793C19.0832 51.1181 19.5573 50.3135 19.5573 49.6212C19.5573 49.001 19.5349 47.3598 19.5221 45.1819C12.2901 46.7589 10.7642 41.6817 10.7642 41.6817C9.58151 38.6655 7.87685 37.8626 7.87685 37.8626C5.51619 36.2423 8.05562 36.2759 8.05562 36.2759C10.6653 36.4602 12.0379 38.9668 12.0379 38.9668C14.3571 42.9558 18.1239 41.8051 19.6051 41.1368C19.8414 39.4492 20.5133 38.2985 21.2555 37.6462C15.4824 36.9875 9.41232 34.747 9.41232 24.7433C9.41232 21.8938 10.4259 19.5635 12.089 17.7381C11.8209 17.0778 10.9286 14.4238 12.3444 10.8291C12.3444 10.8291 14.5279 10.1271 19.4934 13.5055C21.5668 12.927 23.7918 12.6369 26.0024 12.6273C28.2098 12.6369 30.4348 12.927 32.5114 13.5055C37.4753 10.1271 39.654 10.8291 39.654 10.8291C41.073 14.4238 40.1807 17.0778 39.9126 17.7381C41.5789 19.5635 42.5845 21.8938 42.5845 24.7433C42.5845 34.7727 36.5049 36.9795 30.7125 37.6254C31.6463 38.4315 32.4779 40.0245 32.4779 42.4606C32.4779 45.9511 32.4459 48.767 32.4459 49.6228C32.4459 50.3215 32.9136 51.1325 34.2336 50.8777C44.5557 47.4191 51.9984 37.6398 51.9984 26.1103C52 11.6881 40.3579 0 25.9976 0Z" fill="white"/>
</g>
<defs>
<clipPath id="clip0_1518_282">
<rect width="52" height="50.9241" fill="white"/>
</clipPath>
</defs>
</svg>
