<svg width="30" height="23" viewBox="0 0 30 23" fill="none" xmlns="http://www.w3.org/2000/svg">
<path d="M18.9029 0.27047C16.2196 1.18089 14.5238 3.52775 14.717 6.09715L14.7814 7.0885L13.7081 6.96711C9.80135 6.50179 6.38829 4.92373 3.4904 2.27339L2.07366 0.958342L1.70874 1.92946C0.935967 4.09423 1.42968 6.3804 3.03962 7.91799C3.89825 8.76772 3.70506 8.88911 2.22392 8.38332C1.70874 8.22147 1.25795 8.10008 1.21502 8.16077C1.06476 8.30239 1.57994 10.1435 1.98779 10.8718C2.5459 11.8834 3.68359 12.8747 4.92861 13.4614L5.98044 13.9268L4.73542 13.947C3.53333 13.947 3.4904 13.9672 3.6192 14.3921C4.04851 15.7071 5.74431 17.1031 7.63331 17.7101L8.96419 18.1349L7.80503 18.7823C6.08777 19.713 4.06998 20.239 2.05219 20.2795C1.08623 20.2997 0.291992 20.3806 0.291992 20.4413C0.291992 20.6436 2.91082 21.7766 4.4349 22.2217C9.00712 23.5367 14.438 22.9703 18.5165 20.7246C21.4144 19.1263 24.3123 15.9499 25.6646 12.8747C26.3944 11.236 27.1243 8.2417 27.1243 6.80526C27.1243 5.87461 27.1887 5.75322 28.3908 4.64048C29.0991 3.99307 29.7646 3.28497 29.8934 3.08265C30.108 2.69826 30.0866 2.69826 28.9918 3.04219C27.1672 3.64914 26.9096 3.56821 27.8112 2.65779C28.4766 2.01038 29.2709 0.836952 29.2709 0.493017C29.2709 0.432322 28.9489 0.53348 28.584 0.715563C28.1976 0.917879 27.3389 1.22135 26.695 1.40344L25.5358 1.74737L24.484 1.07973C23.9044 0.715563 23.0887 0.310932 22.6594 0.189543C21.5646 -0.0936985 19.8903 -0.0532341 18.9029 0.27047Z" fill="#7C7BA2"/>
</svg>
