<svg width="32" height="29" viewBox="0 0 32 29" fill="none" xmlns="http://www.w3.org/2000/svg">
<path d="M31.7207 0.218085C31.6183 0.125295 31.4947 0.0592808 31.3609 0.0258711C31.2272 -0.00753857 31.0872 -0.00731693 30.9535 0.0265163L0.637757 7.6469C0.481182 7.68628 0.339159 7.77007 0.2286 7.8883C0.11804 8.00652 0.0436022 8.15421 0.0141449 8.31376C-0.0153124 8.47332 0.00145293 8.63802 0.0624462 8.78827C0.123439 8.93852 0.22609 9.06798 0.358178 9.16124L9.03144 15.2842L11.5961 27.9002C11.6287 28.0609 11.7071 28.2086 11.8217 28.3254C11.9363 28.4421 12.0822 28.5229 12.2416 28.5579C12.401 28.5929 12.567 28.5805 12.7196 28.5224C12.8721 28.4643 13.0046 28.3628 13.1009 28.2304L17.7512 21.8377L26.8575 28.8277C26.9745 28.9174 27.1127 28.9748 27.2585 28.9941C27.4043 29.0134 27.5526 28.994 27.6886 28.9377C27.8246 28.8815 27.9436 28.7905 28.0337 28.6737C28.1239 28.5568 28.182 28.4183 28.2024 28.2719L31.9919 0.965517C32.011 0.82813 31.9963 0.688114 31.949 0.557783C31.9018 0.427452 31.8233 0.3108 31.7207 0.218085ZM13.7157 16.9406C13.7119 16.9442 13.7091 16.9488 13.7053 16.9524C13.6924 16.9657 13.6803 16.9799 13.6691 16.9948C13.6624 17.0035 13.6557 17.0117 13.6495 17.0208C13.6394 17.0368 13.6303 17.0535 13.6224 17.0708C13.6178 17.0801 13.6127 17.089 13.6089 17.0987C13.6024 17.1166 13.597 17.1349 13.5929 17.1535C13.5904 17.1641 13.5868 17.1747 13.5849 17.1849C13.5845 17.1867 13.584 17.1886 13.5834 17.1904L12.5422 24.1006L10.6388 14.7338L29.4975 2.4354L13.7157 16.9406ZM27.7213 2.58358L10.1797 14.0247L2.83439 8.84012L27.7213 2.58358ZM16.899 20.139L13.2308 25.1822L14.3095 18.0225L16.9668 20.063C16.9427 20.0873 16.9201 20.1129 16.899 20.1399V20.139ZM14.6556 17.2227L29.991 3.12801L26.7464 26.5088L14.6556 17.2227Z" fill="white"/>
</svg>
