<svg width="40" height="38" viewBox="0 0 40 38" fill="none" xmlns="http://www.w3.org/2000/svg">
<path d="M15.249 12.6548C15.2639 13.2681 15.3227 13.8796 15.425 14.4845C15.5276 15.0968 15.5866 15.7157 15.6016 16.3363C15.6016 17.1082 15.3811 17.9679 13.8158 17.9679V19.0921C15.3811 19.0921 15.6016 20.0395 15.6016 20.7237C15.5866 21.3225 15.5276 21.9194 15.425 22.5095C15.3227 23.1071 15.2639 23.7113 15.249 24.3174C15.249 26.544 16.6158 27.3377 18.4458 27.3377H18.9084V26.125H18.5118C17.2771 26.125 16.77 25.4408 16.77 24.2071C16.7787 23.6747 16.8303 23.1439 16.9242 22.6198C17.0225 22.0666 17.0742 21.5061 17.0787 20.9442C17.1008 19.5332 16.4834 18.7834 15.4913 18.5411V18.4969C16.4834 18.2324 17.1008 17.5269 17.0787 16.1161C17.0732 15.5543 17.0215 14.9939 16.9242 14.4405C16.8303 13.9238 16.7787 13.4002 16.77 12.875C16.77 11.6845 17.2108 10.9803 18.5118 10.9803H18.9084V9.7666H18.4458C16.5718 9.7666 15.249 10.6263 15.249 12.6548Z" fill="#E44550"/>
<path d="M24.3984 16.3363C24.4134 15.7157 24.4724 15.0968 24.575 14.4845C24.6772 13.8796 24.7361 13.2681 24.751 12.6548C24.751 10.6263 23.4281 9.7666 21.5542 9.7666H21.0916V10.979H21.4881C22.7892 10.979 23.23 11.6845 23.23 12.8737C23.2213 13.3989 23.1697 13.9225 23.0758 14.4392C22.9783 14.993 22.9266 15.5538 22.921 16.1161C22.8989 17.5269 23.5163 18.2324 24.5084 18.4969V18.5411C23.5163 18.7834 22.8989 19.5332 22.921 20.9442C22.9255 21.5061 22.9772 22.0666 23.0755 22.6198C23.1694 23.1439 23.221 23.6747 23.2297 24.2071C23.2297 25.4416 22.7226 26.125 21.4879 26.125H21.0916V27.3377H21.5542C23.3842 27.3377 24.751 26.544 24.751 24.3174C24.7361 23.7113 24.6772 23.1071 24.575 22.5095C24.4724 21.9194 24.4134 21.3225 24.3984 20.7237C24.3984 20.0395 24.6189 19.0921 26.1842 19.0921V17.9679C24.6189 17.9679 24.3984 17.1082 24.3984 16.3363Z" fill="#E44550"/>
<path d="M38.9474 8.02632H29.4737C29.1945 8.02632 28.9268 8.13723 28.7294 8.33463C28.532 8.53204 28.4211 8.79978 28.4211 9.07895V9.29843L21.6466 0.793428C21.4494 0.545931 21.199 0.346068 20.9139 0.208702C20.6288 0.0713354 20.3164 0 20 0C19.6836 0 19.3712 0.0713354 19.0861 0.208702C18.801 0.346068 18.5506 0.545931 18.3534 0.793428L11.5789 9.29764V9.07895C11.5789 8.79978 11.468 8.53204 11.2706 8.33463C11.0732 8.13723 10.8055 8.02632 10.5263 8.02632H1.05263C0.773456 8.02632 0.505715 8.13723 0.308309 8.33463C0.110902 8.53204 0 8.79978 0 9.07895V28.0263C0 28.3055 0.110902 28.5732 0.308309 28.7706C0.505715 28.9681 0.773456 29.079 1.05263 29.079H10.5263C10.8055 29.079 11.0732 28.9681 11.2706 28.7706C11.468 28.5732 11.5789 28.3055 11.5789 28.0263V27.8069L18.3534 36.3111C18.5506 36.5586 18.801 36.7584 19.0861 36.8958C19.3712 37.0332 19.6836 37.1045 20 37.1045C20.3164 37.1045 20.6288 37.0332 20.9139 36.8958C21.199 36.7584 21.4494 36.5586 21.6466 36.3111L28.4211 27.8061V28.0263C28.4211 28.3055 28.532 28.5732 28.7294 28.7706C28.9268 28.9681 29.1945 29.079 29.4737 29.079H38.9474C39.2265 29.079 39.4943 28.9681 39.6917 28.7706C39.8891 28.5732 40 28.3055 40 28.0263V9.07895C40 8.79978 39.8891 8.53204 39.6917 8.33463C39.4943 8.13723 39.2265 8.02632 38.9474 8.02632ZM30.1147 21.4563L28.0095 24.0992L20 34.1537L11.9905 24.0992L9.88526 21.4563L7.57132 18.5526L9.88526 15.6474L11.9905 13.0045L20 2.95001L28.0095 13.0045L30.1147 15.6474L32.4287 18.5526L30.1147 21.4563ZM9.47368 26.9737H2.10526V10.1316H9.47368V14.1024L9.06211 14.6192L6.19026 18.2245C6.11605 18.3177 6.07564 18.4333 6.07564 18.5524C6.07564 18.6715 6.11605 18.7871 6.19026 18.8803L9.06211 22.4855L9.47368 23.0013V26.9737ZM37.8947 26.9737H30.5263V23.0013L30.9379 22.4845L33.8097 18.8792C33.8839 18.786 33.9244 18.6704 33.9244 18.5513C33.9244 18.4322 33.8839 18.3166 33.8097 18.2234L30.9379 14.6182L30.5263 14.1024V10.1316H37.8947V26.9737Z" fill="#E44550"/>
</svg>
