<svg width="44" height="42" viewBox="0 0 44 42" fill="none" xmlns="http://www.w3.org/2000/svg">
<g clip-path="url(#clip0_1253_1830)">
<path d="M43.7464 27.0309L33.3254 13.9514C33.2168 13.8153 33.0791 13.7055 32.9226 13.6301C32.7661 13.5546 32.5947 13.5154 32.4211 13.5154H23.8816V7.23717L26.2593 10.1955C26.4136 10.3912 26.605 10.5544 26.8224 10.6754C27.0398 10.7965 27.279 10.8731 27.5261 10.9008C27.7731 10.9285 28.0232 10.9067 28.2619 10.8368C28.5006 10.7669 28.7231 10.6502 28.9165 10.4934C29.11 10.3366 29.2706 10.1429 29.3891 9.92341C29.5075 9.70394 29.5815 9.46307 29.6067 9.21473C29.6319 8.96638 29.6079 8.71548 29.5359 8.47652C29.464 8.23757 29.3456 8.0153 29.1876 7.82255L23.4642 0.701447C23.2878 0.482044 23.0648 0.305062 22.8114 0.183474C22.558 0.061886 22.2808 -0.0012207 22 -0.0012207C21.7192 -0.0012207 21.442 0.061886 21.1886 0.183474C20.9352 0.305062 20.7122 0.482044 20.5358 0.701447L14.8124 7.82255C14.6544 8.0153 14.536 8.23757 14.4641 8.47652C14.3921 8.71548 14.3681 8.96638 14.3933 9.21473C14.4185 9.46307 14.4925 9.70394 14.6109 9.92341C14.7294 10.1429 14.89 10.3366 15.0835 10.4934C15.2769 10.6502 15.4994 10.7669 15.7381 10.8368C15.9768 10.9067 16.2269 10.9285 16.4739 10.9008C16.721 10.8731 16.9602 10.7965 17.1776 10.6754C17.395 10.5544 17.5864 10.3912 17.7407 10.1955L20.1184 7.23717V13.5154H11.5789C11.4053 13.5154 11.2339 13.5546 11.0774 13.6301C10.9209 13.7055 10.7832 13.8153 10.6746 13.9514L0.253581 27.0309C0.0893121 27.2372 -0.00012319 27.4935 1.27356e-07 27.7576V40.8372C1.27356e-07 41.1455 0.121991 41.4412 0.339139 41.6593C0.556286 41.8773 0.850802 41.9998 1.15789 41.9998H42.8421C43.1492 41.9998 43.4437 41.8773 43.6609 41.6593C43.878 41.4412 44 41.1455 44 40.8372V27.7576C44.0001 27.4935 43.9107 27.2372 43.7464 27.0309ZM2.31579 39.6745V28.3389H13.8264L16.2716 33.2496C16.3197 33.3461 16.3936 33.4273 16.4851 33.484C16.5766 33.5407 16.682 33.5708 16.7895 33.5707H27.2105C27.318 33.5708 27.4234 33.5407 27.5149 33.484C27.6064 33.4273 27.6803 33.3461 27.7284 33.2496L30.1736 28.3389H41.6842V39.6745H2.31579ZM22 24.9963C22.499 24.9963 22.9776 24.7973 23.3305 24.443C23.6833 24.0887 23.8816 23.6081 23.8816 23.1071V15.8406H31.8647L40.8963 27.1763H29.8158C29.7083 27.1762 29.6029 27.2063 29.5114 27.263C29.42 27.3197 29.346 27.4009 29.2979 27.4974L26.8527 32.4081H17.1473L14.7021 27.4974C14.654 27.4009 14.58 27.3197 14.4886 27.263C14.3971 27.2063 14.2917 27.1762 14.1842 27.1763H3.10402L12.1356 15.8406H20.1184V23.1071C20.1184 23.6081 20.3167 24.0887 20.6695 24.443C21.0224 24.7973 21.501 24.9963 22 24.9963Z" fill="#232264"/>
</g>
<defs>
<clipPath id="clip0_1253_1830">
<rect width="44" height="42" fill="white"/>
</clipPath>
</defs>
</svg>
