<svg width="40" height="35" viewBox="0 0 40 35" fill="none" xmlns="http://www.w3.org/2000/svg">
<path d="M38.806 35H1.19409C0.984016 35 0.777663 34.944 0.595856 34.8376C0.414049 34.7313 0.263223 34.5783 0.158606 34.3942C0.053988 34.21 -0.000719103 34.0013 7.13748e-06 33.7889C0.000733378 33.5766 0.0568672 33.3682 0.162742 33.1848L18.9687 0.598625C19.0739 0.416437 19.2244 0.265286 19.4054 0.160237C19.5863 0.0551876 19.7914 -9.15527e-05 20.0001 -9.15527e-05C20.2087 -9.15527e-05 20.4138 0.0551876 20.5947 0.160237C20.7757 0.265286 20.9262 0.416437 21.0314 0.598625L39.8374 33.1848C39.9432 33.3682 39.9994 33.5766 40.0001 33.7889C40.0008 34.0013 39.9461 34.21 39.8415 34.3942C39.7369 34.5783 39.5861 34.7313 39.4043 34.8376C39.2224 34.944 39.0161 35 38.806 35ZM3.27289 32.5862H36.7272L20.0001 3.60199L3.27289 32.5862Z" fill="#232264"/>
<path d="M22.0898 14.4828C22.0898 13.3163 21.1542 12.3707 20.0002 12.3707C18.8462 12.3707 17.9106 13.3163 17.9106 14.4828V21.1207C17.9106 22.2872 18.8462 23.2328 20.0002 23.2328C21.1542 23.2328 22.0898 22.2872 22.0898 21.1207V14.4828Z" fill="#232264"/>
<path d="M22.0898 27.1552C22.0898 25.9887 21.1542 25.0431 20.0002 25.0431C18.8462 25.0431 17.9106 25.9887 17.9106 27.1552C17.9106 28.3216 18.8462 29.2672 20.0002 29.2672C21.1542 29.2672 22.0898 28.3216 22.0898 27.1552Z" fill="#232264"/>
</svg>
