<svg id="Layer_1" data-name="Layer 1" xmlns="http://www.w3.org/2000/svg" viewBox="0 0 156.162 49.549">
  <defs>
    <style>
      .cls-1 {
        fill: #fff;
      }
    </style>
  </defs>
  <g>
    <g>
      <path class="cls-1" d="M38.569,18.266a5.554,5.554,0,0,1,.612-2.646,4.372,4.372,0,0,1,1.71-1.782,5.009,5.009,0,0,1,2.538-.63,4.747,4.747,0,0,1,2.475.648,4.484,4.484,0,0,1,1.7,1.818,5.662,5.662,0,0,1,.612,2.664v.756H41.143a2.026,2.026,0,0,0,.684,1.458,2.4,2.4,0,0,0,1.656.558,2.855,2.855,0,0,0,1.332-.315,5.112,5.112,0,0,0,1.332-1.089l1.6,1.638a6.044,6.044,0,0,1-1.908,1.431,5.425,5.425,0,0,1-2.358.513,5.146,5.146,0,0,1-2.574-.63,4.346,4.346,0,0,1-1.728-1.773A5.462,5.462,0,0,1,38.569,18.266Zm7.056-1.044a1.885,1.885,0,0,0-.693-1.314,2.471,2.471,0,0,0-3.015-.018,2.176,2.176,0,0,0-.738,1.332Z"/>
      <path class="cls-1" d="M56.047,15.782v3.834a.939.939,0,0,0,.225.7,1.058,1.058,0,0,0,.747.216H59.2v2.484H56.785a3.63,3.63,0,0,1-2.448-.747,2.665,2.665,0,0,1-.864-2.133V15.782h-2.34v-2.3h2.34v-2.43h2.574v2.43h3.744v2.3Z"/>
      <path class="cls-1" d="M63.067,9.878h2.574V14.36h.036a3.787,3.787,0,0,1,4.608-.648,3.391,3.391,0,0,1,1.26,1.422A4.768,4.768,0,0,1,72,17.258v5.76H69.421V17.6a2.155,2.155,0,0,0-.486-1.494,1.7,1.7,0,0,0-1.332-.54,1.927,1.927,0,0,0-1.44.531,2,2,0,0,0-.522,1.467v5.454H63.067Z"/>
      <path class="cls-1" d="M74.641,18.266a5.554,5.554,0,0,1,.612-2.646,4.372,4.372,0,0,1,1.71-1.782,5.009,5.009,0,0,1,2.538-.63,4.747,4.747,0,0,1,2.475.648,4.484,4.484,0,0,1,1.7,1.818,5.674,5.674,0,0,1,.612,2.664v.756H77.215a2.026,2.026,0,0,0,.684,1.458,2.4,2.4,0,0,0,1.656.558,2.855,2.855,0,0,0,1.332-.315,5.112,5.112,0,0,0,1.332-1.089l1.6,1.638a6.044,6.044,0,0,1-1.908,1.431,5.425,5.425,0,0,1-2.358.513,5.146,5.146,0,0,1-2.574-.63,4.346,4.346,0,0,1-1.728-1.773A5.462,5.462,0,0,1,74.641,18.266ZM81.7,17.222A1.885,1.885,0,0,0,81,15.908a2.471,2.471,0,0,0-3.015-.018,2.176,2.176,0,0,0-.738,1.332Z"/>
      <path class="cls-1" d="M87.816,13.478h2.466v.882h.036a3.607,3.607,0,0,1,2.773-1.152,3.293,3.293,0,0,1,2.141.729,3.837,3.837,0,0,1,1.26,1.989l-2.412.792a1.648,1.648,0,0,0-1.71-1.17,1.869,1.869,0,0,0-1.475.567,2.261,2.261,0,0,0-.5,1.557v5.346H87.816Z"/>
      <path class="cls-1" d="M98.688,18.266A5.566,5.566,0,0,1,99.3,15.62a4.372,4.372,0,0,1,1.71-1.782,5.009,5.009,0,0,1,2.538-.63,4.747,4.747,0,0,1,2.475.648,4.493,4.493,0,0,1,1.7,1.818,5.673,5.673,0,0,1,.611,2.664v.756h-7.073a2.021,2.021,0,0,0,.683,1.458,2.406,2.406,0,0,0,1.657.558,2.861,2.861,0,0,0,1.332-.315,5.145,5.145,0,0,0,1.332-1.089l1.6,1.638a6.033,6.033,0,0,1-1.908,1.431,5.424,5.424,0,0,1-2.357.513,5.147,5.147,0,0,1-2.575-.63A4.346,4.346,0,0,1,99.3,20.885,5.474,5.474,0,0,1,98.688,18.266Zm7.056-1.044a1.885,1.885,0,0,0-.693-1.314,2.471,2.471,0,0,0-3.015-.018,2.186,2.186,0,0,0-.738,1.332Z"/>
      <path class="cls-1" d="M111.252,19.778v-6.3h2.573v5.706a1.536,1.536,0,0,0,1.729,1.746,1.634,1.634,0,0,0,1.233-.477,1.752,1.752,0,0,0,.459-1.269V13.478h2.573v9.54h-2.465v-.846h-.037a2.764,2.764,0,0,1-1.088.81,3.554,3.554,0,0,1-1.45.306,3.207,3.207,0,0,1-3.527-3.51Z"/>
      <path class="cls-1" d="M122.466,13.478h2.268v.828h.037a2.117,2.117,0,0,1,.782-.747,2.157,2.157,0,0,1,1.053-.261,2.081,2.081,0,0,1,1.818,1.062h.036a2.269,2.269,0,0,1,1.98-1.062,2.145,2.145,0,0,1,1.692.738,2.814,2.814,0,0,1,.648,1.926v7.056H130.4V16.412a.854.854,0,0,0-.216-.63.828.828,0,0,0-.612-.216.782.782,0,0,0-.6.243.929.929,0,0,0-.225.657v6.552H126.5V16.412a.886.886,0,0,0-.207-.621.755.755,0,0,0-.585-.225.832.832,0,0,0-.63.243.907.907,0,0,0-.234.657v6.552h-2.376Z"/>
      <path class="cls-1" d="M41.449,35.843h-2.52v-2.3h2.52V32.135a2.5,2.5,0,0,1,.837-1.989,3.41,3.41,0,0,1,2.313-.728h2.772V31.7H44.905a.78.78,0,0,0-.576.2.757.757,0,0,0-.2.559v1.08h3.816v2.3H44.131v6.174H41.449Z"/>
      <path class="cls-1" d="M50.593,37.248a5.457,5.457,0,0,1,.612-2.619,4.431,4.431,0,0,1,1.719-1.783,5.367,5.367,0,0,1,5.076,0,4.431,4.431,0,0,1,1.719,1.783,5.91,5.91,0,0,1,0,5.238A4.426,4.426,0,0,1,58,41.648a5.36,5.36,0,0,1-5.076,0,4.426,4.426,0,0,1-1.719-1.781A5.468,5.468,0,0,1,50.593,37.248Zm7.164,0a2.959,2.959,0,0,0-.6-1.972,2.108,2.108,0,0,0-1.7-.711,2.087,2.087,0,0,0-1.683.711,3.523,3.523,0,0,0,0,3.942,2.349,2.349,0,0,0,3.375-.008A2.932,2.932,0,0,0,57.757,37.248Z"/>
      <path class="cls-1" d="M63.157,38.777v-6.3h2.574v5.706a1.535,1.535,0,0,0,1.728,1.746,1.635,1.635,0,0,0,1.233-.476,1.756,1.756,0,0,0,.459-1.27V32.477h2.574v9.54H69.259v-.845h-.036a2.775,2.775,0,0,1-1.089.809,3.549,3.549,0,0,1-1.449.306,3.207,3.207,0,0,1-3.528-3.51Z"/>
      <path class="cls-1" d="M75.091,32.477h2.574v.9H77.7a4.147,4.147,0,0,1,1.242-.873,3.66,3.66,0,0,1,1.512-.3,3.593,3.593,0,0,1,1.746.44A3.32,3.32,0,0,1,83.515,34a4.6,4.6,0,0,1,.5,2.259v5.759H81.445V36.6a2.22,2.22,0,0,0-.468-1.475,1.663,1.663,0,0,0-1.35-.559,1.931,1.931,0,0,0-1.44.531,2.006,2.006,0,0,0-.522,1.467v5.454H75.091Z"/>
      <path class="cls-1" d="M86.467,37.248a5.869,5.869,0,0,1,.557-2.592,4.327,4.327,0,0,1,1.567-1.8,4.141,4.141,0,0,1,2.286-.647,3.556,3.556,0,0,1,2.538.864h.035V28.878h2.573V42.017H93.648v-.828h-.036a3.679,3.679,0,0,1-2.771,1.1,4.143,4.143,0,0,1-2.259-.63,4.24,4.24,0,0,1-1.558-1.773A5.932,5.932,0,0,1,86.467,37.248Zm6.983.611V36.618a1.9,1.9,0,0,0-.288-1.009,2.169,2.169,0,0,0-.8-.756,2.3,2.3,0,0,0-1.142-.288,1.93,1.93,0,0,0-1.593.73,3.513,3.513,0,0,0,.009,3.9,1.91,1.91,0,0,0,1.565.738,2.259,2.259,0,0,0,1.612-.6A1.948,1.948,0,0,0,93.45,37.859Z"/>
      <path class="cls-1" d="M99.282,39.462a2.518,2.518,0,0,1,.909-2.071,6.605,6.605,0,0,1,3.034-1.08,5.248,5.248,0,0,0,1.52-.4.676.676,0,0,0,.405-.6.774.774,0,0,0-.4-.683,2,2,0,0,0-1.08-.252,2.036,2.036,0,0,0-1.341.468,2.116,2.116,0,0,0-.729,1.242l-2.394-.54a3.7,3.7,0,0,1,.811-1.729,4.275,4.275,0,0,1,1.583-1.178,5.033,5.033,0,0,1,2.07-.423,4.124,4.124,0,0,1,2.934,1.025,3.569,3.569,0,0,1,1.1,2.736v6.048h-2.3V40.956h-.036a2.749,2.749,0,0,1-1.161.98,3.9,3.9,0,0,1-1.683.351,3.749,3.749,0,0,1-1.673-.36A2.778,2.778,0,0,1,99.7,40.92,2.653,2.653,0,0,1,99.282,39.462Zm5.976-.991v-1.08h-.035a1.113,1.113,0,0,1-.54.433,6.525,6.525,0,0,1-1.189.323,4.63,4.63,0,0,0-1.386.459.763.763,0,0,0-.378.676.707.707,0,0,0,.333.63,1.784,1.784,0,0,0,.963.216,2.746,2.746,0,0,0,1.1-.226,2.077,2.077,0,0,0,.828-.611A1.3,1.3,0,0,0,105.258,38.471Z"/>
      <path class="cls-1" d="M116.166,34.782v3.834a.933.933,0,0,0,.225.7,1.052,1.052,0,0,0,.747.217h2.177v2.483H116.9a3.627,3.627,0,0,1-2.447-.747,2.667,2.667,0,0,1-.864-2.133V34.782h-2.34v-2.3h2.34V30.048h2.574v2.429h3.744v2.3Z"/>
      <path class="cls-1" d="M132.294,39.66v2.357h-9.378V39.66h3.4V34.836H123.1V32.477h5.8V39.66Zm-6.03-11.214h2.646v2.537h-2.646Z"/>
      <path class="cls-1" d="M134.76,37.248a5.468,5.468,0,0,1,.611-2.619,4.434,4.434,0,0,1,1.72-1.783,5.367,5.367,0,0,1,5.076,0,4.438,4.438,0,0,1,1.719,1.783,5.919,5.919,0,0,1,0,5.238,4.433,4.433,0,0,1-1.719,1.781,5.36,5.36,0,0,1-5.076,0,4.429,4.429,0,0,1-1.72-1.781A5.479,5.479,0,0,1,134.76,37.248Zm7.164,0a2.954,2.954,0,0,0-.6-1.972,2.107,2.107,0,0,0-1.7-.711,2.085,2.085,0,0,0-1.682.711,3.523,3.523,0,0,0,0,3.942,2.082,2.082,0,0,0,1.682.711,2.106,2.106,0,0,0,1.693-.719A2.932,2.932,0,0,0,141.924,37.248Z"/>
      <path class="cls-1" d="M147.234,32.477h2.574v.9h.036a4.147,4.147,0,0,1,1.242-.873,3.656,3.656,0,0,1,1.512-.3,3.593,3.593,0,0,1,1.746.44A3.32,3.32,0,0,1,155.658,34a4.6,4.6,0,0,1,.5,2.259v5.759h-2.574V36.6a2.22,2.22,0,0,0-.468-1.475,1.665,1.665,0,0,0-1.35-.559,1.931,1.931,0,0,0-1.44.531,2,2,0,0,0-.522,1.467v5.454h-2.574Z"/>
    </g>
    <g>
      <polygon class="cls-1" points="0 28.278 14.562 49.549 29.125 28.278 14.562 37.552 0 28.278"/>
      <polygon class="cls-1" points="29.125 25.281 14.562 0 0 25.281 14.562 34.556 29.125 25.281"/>
    </g>
  </g>
</svg>
