<svg width="40" height="41" viewBox="0 0 40 41" fill="none" xmlns="http://www.w3.org/2000/svg">
<path d="M33.7242 34.9674L33.366 34.8779C36.3763 32.1734 38.4955 28.6194 39.4435 24.6852C40.3915 20.7511 40.1237 16.6219 38.6756 12.8431C37.2275 9.0643 34.6671 5.81369 31.3327 3.52065C27.9983 1.2276 24.0468 0 20 0C15.9532 0 12.0017 1.2276 8.66727 3.52065C5.33286 5.81369 2.7725 9.0643 1.32439 12.8431C-0.123728 16.6219 -0.391469 20.7511 0.556532 24.6852C1.50453 28.6194 3.62367 32.1734 6.63403 34.8779L6.27582 34.9674C6.01812 35.0326 5.78954 35.1819 5.62629 35.3917C5.46305 35.6015 5.37449 35.8598 5.37463 36.1256V38.8122C5.37463 39.1289 5.50043 39.4326 5.72435 39.6565C5.94828 39.8804 6.25198 40.0062 6.56866 40.0062H33.4343C33.751 40.0062 34.0547 39.8804 34.2786 39.6565C34.5026 39.4326 34.6284 39.1289 34.6284 38.8122V36.1256C34.6283 35.8594 34.5393 35.6008 34.3755 35.391C34.2117 35.1811 33.9824 35.032 33.7242 34.9674ZM22.6881 12.5435H27.4045L20.0015 14.0241L12.5985 12.5435H22.6881ZM18.143 11.3495L20.0015 5.77488L21.86 11.3495H18.143ZM22.0973 33.5235C22.1141 33.6409 22.1655 33.7507 22.2449 33.8388C22.3244 33.9269 22.4282 33.9893 22.5433 34.0182L32.8373 36.5919V38.2152H7.16567V36.5919L17.4597 34.0182C17.5748 33.9893 17.6786 33.9269 17.7581 33.8388C17.8375 33.7507 17.8889 33.6409 17.9057 33.5235L20.0015 18.8546L22.0973 33.5235ZM30.0466 34.4692C29.9836 34.5133 29.9251 34.5633 29.8716 34.6185L23.2224 32.9573L20.6722 15.1065L28.26 13.5889L22.2663 19.5838C22.2384 19.6117 22.2134 19.6423 22.1916 19.6752C22.1818 19.6898 22.1752 19.705 22.1669 19.7208C22.1559 19.7393 22.1459 19.7583 22.137 19.7779C22.1297 19.7974 22.1235 19.8174 22.1182 19.8376C22.1123 19.8543 22.1074 19.8713 22.1033 19.8886C22.0953 19.9273 22.0912 19.9667 22.091 20.0062C22.0898 21.6545 22.5596 23.2688 23.4449 24.6591C24.3303 26.0494 25.5944 27.1578 27.0886 27.8539C28.5827 28.5499 30.2445 28.8046 31.8785 28.588C33.5125 28.3713 35.0505 27.6923 36.3116 26.631C35.0259 29.795 32.8495 32.5179 30.0466 34.4692ZM38.1869 20.6032C38.0378 22.4739 37.1894 24.2198 35.8107 25.4929C34.4321 26.7661 32.6244 27.4731 30.7478 27.4731C28.8712 27.4731 27.0634 26.7661 25.6848 25.4929C24.3061 24.2198 23.4577 22.4739 23.3087 20.6032H38.1869ZM24.1293 19.4092L30.3704 13.168L30.9991 13.0423L37.3663 19.4092H24.1293ZM20.0015 2.39428C24.2932 2.40019 28.4355 3.97099 31.652 6.81231C34.8686 9.65362 36.9385 13.5704 37.474 17.8286L32.4063 12.7608L33.5516 12.5319C33.6969 12.5028 33.8261 12.4207 33.9142 12.3016C34.0023 12.1826 34.043 12.035 34.0284 11.8876C34.0138 11.7402 33.9449 11.6035 33.8351 11.504C33.7253 11.4046 33.5825 11.3495 33.4343 11.3495H23.1185L20.5687 3.69816C20.529 3.57937 20.453 3.47606 20.3513 3.40286C20.2497 3.32966 20.1276 3.29027 20.0024 3.29027C19.8771 3.29027 19.7551 3.32966 19.6535 3.40286C19.5518 3.47606 19.4758 3.57937 19.4361 3.69816L16.8845 11.3495H6.56866C6.42053 11.3495 6.27769 11.4046 6.1679 11.504C6.0581 11.6035 5.9892 11.7402 5.97457 11.8876C5.95995 12.035 6.00065 12.1826 6.08876 12.3016C6.17687 12.4207 6.3061 12.5028 6.45135 12.5319L7.59672 12.7608L2.52896 17.8286C3.06444 13.5704 5.13441 9.65362 8.35094 6.81231C11.5675 3.97099 15.7098 2.40019 20.0015 2.39428ZM1.81612 20.6032H16.6943C16.5453 22.4739 15.6969 24.2198 14.3182 25.4929C12.9396 26.7661 11.1318 27.4731 9.25523 27.4731C7.37862 27.4731 5.57089 26.7661 4.19223 25.4929C2.81358 24.2198 1.96519 22.4739 1.81612 20.6032ZM2.63672 19.4092L9.00388 13.0423L9.63254 13.168L15.8737 19.4092H2.63672ZM3.69135 26.631C4.95244 27.6923 6.49051 28.3713 8.12449 28.588C9.75847 28.8046 11.4203 28.5499 12.9144 27.8539C14.4085 27.1578 15.6727 26.0494 16.5581 24.6591C17.4434 23.2688 17.9131 21.6545 17.9119 20.0062C17.9118 19.9669 17.9078 19.9277 17.9 19.8892C17.8959 19.8719 17.891 19.8549 17.8851 19.8382C17.8798 19.8179 17.8736 19.798 17.8663 19.7785C17.8574 19.7589 17.8474 19.7399 17.8364 19.7214C17.8281 19.7062 17.8215 19.6916 17.8116 19.6758C17.7899 19.6429 17.7649 19.6123 17.737 19.5844L11.743 13.5901L19.3307 15.1077L16.7806 32.9585L10.1313 34.6205C10.0779 34.5653 10.0193 34.5154 9.95642 34.4713C7.15315 32.5194 4.97673 29.7958 3.69135 26.631Z" fill="#E44550"/>
</svg>
