<svg width="40" height="41" viewBox="0 0 40 41" fill="none" xmlns="http://www.w3.org/2000/svg">
<path d="M39.4406 22.0341L30.5594 16.9079V6.56948C30.5594 6.37308 30.5077 6.18014 30.4095 6.01006C30.3113 5.83997 30.1701 5.69873 30 5.60053L20.5594 0.149902C20.3893 0.0516993 20.1964 0 20 0C19.8036 0 19.6107 0.0516993 19.4406 0.149902L10 5.60053C9.82991 5.69873 9.68867 5.83997 9.59047 6.01006C9.49226 6.18014 9.44056 6.37308 9.44056 6.56948V16.9079L0.559441 22.0341C0.389353 22.1323 0.24811 22.2735 0.149907 22.4436C0.0517054 22.6137 4.98934e-06 22.8067 0 23.0031V33.9038C4.98934e-06 34.1002 0.0517054 34.2931 0.149907 34.4632C0.24811 34.6333 0.389353 34.7745 0.559441 34.8727L10 40.3233C10.1701 40.4215 10.363 40.4732 10.5594 40.4732C10.7558 40.4732 10.9488 40.4215 11.1189 40.3233L20 35.1958L28.8811 40.3233C29.0512 40.4215 29.2442 40.4733 29.4406 40.4733C29.637 40.4733 29.8299 40.4215 30 40.3233L39.4406 34.8727C39.6106 34.7745 39.7519 34.6333 39.8501 34.4632C39.9483 34.2931 40 34.1002 40 33.9038V23.0031C40 22.8067 39.9483 22.6137 39.8501 22.4436C39.7519 22.2735 39.6106 22.1323 39.4406 22.0341ZM37.7622 32.612L30 28.1303V19.1672L37.7622 23.6492V32.612ZM20 12.6657L27.8962 17.2251C27.9812 17.2744 28.0777 17.3003 28.1759 17.3001C28.2254 17.3 28.2746 17.2933 28.3222 17.2803V17.4707L20 22.2749L11.6783 17.4702V17.2797C11.726 17.2927 11.7752 17.2994 11.8246 17.2996C11.9228 17.2997 12.0194 17.2739 12.1043 17.2246L20 12.6657ZM28.3217 16.1784L20.5594 11.6968V2.73368L28.3217 7.21536V16.1784ZM19.4406 11.6968L11.6783 16.1784V7.21536L19.4406 2.73368V11.6968ZM10 19.1672V28.1303L2.23776 32.612V23.6492L10 19.1672ZM10.5594 29.0993L18.3217 33.581L10.5594 38.0626L2.7972 33.581L10.5594 29.0993ZM19.2758 33.0299C19.2569 32.9588 19.2241 32.892 19.1794 32.8336C19.1347 32.7751 19.0788 32.726 19.0151 32.6892L11.1189 28.1298V19.0128C11.1189 18.9392 11.1043 18.8662 11.076 18.7982C11.0478 18.7302 11.0063 18.6684 10.9541 18.6165L11.1189 18.5214L19.4406 23.3258V32.9359L19.2758 33.0299ZM20.5594 23.3258L28.8811 18.5214L29.0459 18.6165C28.9937 18.6684 28.9522 18.7302 28.924 18.7982C28.8957 18.8662 28.8811 18.9392 28.8811 19.0128V28.1317L20.9849 32.6912C20.9212 32.728 20.8653 32.7771 20.8206 32.8355C20.7759 32.894 20.7431 32.9607 20.7242 33.0319L20.5594 32.9368V23.3258ZM29.4406 29.0993L37.2028 33.581L29.4406 38.0626L21.6783 33.581L29.4406 29.0993Z" fill="#E44550"/>
</svg>
