<svg width="52" height="43" viewBox="0 0 52 43" fill="none" xmlns="http://www.w3.org/2000/svg">
<g clip-path="url(#clip0_1518_278)">
<path d="M32.5757 0.502041C27.8791 2.19282 24.9108 6.55127 25.249 11.323L25.3617 13.1641L23.483 12.9387C16.6448 12.0745 10.6707 9.1438 5.59836 4.22176L3.11855 1.77952L2.47981 3.58302C1.12719 7.60331 1.99136 11.849 4.80933 14.7046C6.31224 16.2826 5.97409 16.5081 3.38156 15.5688C2.47981 15.2682 1.69078 15.0427 1.61563 15.1555C1.35262 15.4185 2.25437 18.8376 2.96826 20.1902C3.94515 22.0689 5.93651 23.9099 8.11574 24.9995L9.95681 25.8637L7.77758 25.9013C5.6735 25.9013 5.59836 25.9389 5.82379 26.7279C6.57525 29.1701 9.54351 31.7627 12.8499 32.8898L15.1794 33.6789L13.1505 34.8812C10.1447 36.6096 6.61282 37.5865 3.08098 37.6616C1.3902 37.6992 0 37.8495 0 37.9622C0 38.3379 4.58389 40.442 7.25156 41.2686C15.2546 43.7108 24.7605 42.6588 31.8994 38.4882C36.9717 35.5199 42.044 29.621 44.4111 23.9099C45.6886 20.8665 46.9661 15.3057 46.9661 12.6381C46.9661 10.9097 47.0788 10.6843 49.1829 8.61778C50.4228 7.41545 51.5875 6.1004 51.813 5.72467C52.1887 5.01078 52.1511 5.01078 50.2349 5.64952C47.0412 6.77671 46.5904 6.62642 48.1684 4.93564C49.3332 3.73331 50.7234 1.55408 50.7234 0.915344C50.7234 0.802624 50.1598 0.99049 49.521 1.32864C48.8447 1.70437 47.3418 2.26797 46.2146 2.60612L44.1857 3.24486L42.3446 2.00496C41.3302 1.32864 39.9024 0.577187 39.1509 0.351749C37.2347 -0.174271 34.304 -0.0991249 32.5757 0.502041Z" fill="white"/>
</g>
<defs>
<clipPath id="clip0_1518_278">
<rect width="52" height="42.5653" fill="white"/>
</clipPath>
</defs>
</svg>
